<svg width="395" height="102" viewBox="0 0 395 102" fill="none" xmlns="http://www.w3.org/2000/svg">
<path d="M326.91 1.75828C323.516 3.06451 318.614 8.10284 316.351 12.3948C315.22 14.4474 314.183 18.7393 313.9 22.1915C313.617 25.5504 312.957 28.5361 312.391 28.9093C311.826 29.2825 309.563 29.6557 307.395 29.6557C303.718 29.6557 303.341 29.8423 303.341 31.895C303.341 34.0409 303.718 34.2275 308.337 34.5074L313.24 34.7873L313.523 52.6081C313.617 62.5914 313.334 71.5485 312.863 72.8547C312.203 74.5341 311.071 75.3739 309.28 75.5605C307.678 75.7471 306.546 76.4935 306.358 77.4265C306.075 78.9194 307.206 79.106 319.274 79.106C330.021 79.106 332.566 78.826 332.566 77.7997C332.566 76.4002 330.587 75.3739 327.853 75.3739C323.516 75.3739 323.139 73.6011 323.139 53.4478V34.4141L329.55 34.1342C335.112 33.8543 335.866 33.6677 335.866 31.9883C335.866 30.3088 335.112 30.1222 329.361 29.8423L322.856 29.5624L323.327 20.5121C323.799 11.555 325.496 6.05019 328.041 5.11716C328.701 4.93056 330.775 6.3301 332.661 8.28944C337.752 13.701 343.22 12.8613 343.22 6.61001C343.22 2.87791 339.92 0.731956 334.075 0.825256C331.435 0.825256 328.23 1.29177 326.91 1.75828Z" fill="#C10010"/>
<path d="M284.486 2.41159C279.678 3.99773 278.075 10.249 281.752 13.8878C286.277 18.3663 294.196 13.4213 292.405 7.17001C291.462 3.99773 287.314 1.47856 284.486 2.41159Z" fill="#C10010"/>
<path d="M91.3135 6.89012C84.8084 8.56956 81.1317 10.9021 76.135 16.2204C61.805 31.7086 62.7478 59.3261 78.2091 73.0415C90.0879 83.5847 108.378 83.7713 119.785 73.508C125.63 68.1898 129.213 61.7519 126.95 60.3524C124.97 59.1395 124.876 59.1395 121.953 63.9912C113.846 77.2401 98.8556 79.2928 87.9195 68.4697C80.9431 61.6586 78.6805 55.3141 78.5862 43.1847C78.4919 27.8832 82.4515 18.1797 90.9364 12.7682C94.6132 10.5289 96.4044 10.0624 101.118 10.0624C110.357 10.0624 115.825 15.1007 119.879 27.5099C121.199 31.4286 121.953 32.455 123.556 32.455C125.63 32.455 125.63 32.2684 125.347 19.8591C125.064 7.82314 124.97 7.26333 123.085 7.26333C122.048 7.26333 120.633 7.91644 119.973 8.75616C119.031 10.0624 118.559 10.1557 116.674 9.12938C109.792 5.49059 99.7984 4.65086 91.3135 6.89012Z" fill="#C10010"/>
<path d="M241.873 21.4452L241.59 29.1893L237.159 29.4692C233.105 29.7491 232.634 29.9357 232.634 32.0816C232.634 34.1343 233.011 34.3209 237.348 34.3209H242.061V54.4742V74.6275L244.795 77.3333C247.341 79.7592 248.189 80.0391 253.846 80.0391C261.294 80.0391 266.573 78.173 266.573 75.4672C266.573 73.7878 266.102 73.6945 261.671 74.161C257.523 74.5342 256.203 74.3476 254.317 72.7615C251.96 70.8954 251.96 70.8021 251.678 52.6082L251.395 34.3209H258.465C265.442 34.3209 265.63 34.2276 265.63 31.9883C265.63 29.8424 265.348 29.7491 258.843 29.4692L251.96 29.1893L251.678 21.4452L251.395 13.7944H246.775H242.156L241.873 21.4452Z" fill="#C10010"/>
<path d="M151.085 29.096C125.993 39.7387 136.365 86.5289 165.321 80.1325C169.657 79.1061 171.543 77.9865 175.691 74.0678C180.97 69.0295 181.819 67.2567 179.462 66.417C178.614 66.1371 176.445 67.5366 173.994 70.0558C169.186 75.0008 165.038 76.2138 158.533 74.441C151.556 72.4817 148.068 67.35 146.56 56.4336L145.994 52.9815H162.964H179.839V48.9695C179.839 39.9191 175.785 32.5482 169.092 29.5625C164.566 27.5099 155.327 27.23 151.085 29.096ZM164.001 32.5482C166.452 33.8545 169.469 40.4789 169.469 44.7708V48.3163H158.156H146.842V45.6106C146.842 36.0004 156.553 28.6295 164.001 32.5482Z" fill="#C10010"/>
<path d="M214.721 29.5624C212.93 30.5887 210.573 32.2682 209.536 33.3878L207.65 35.4404L207.179 32.3615C206.613 28.6294 204.822 28.1629 195.112 29.1892C190.304 29.6557 189.172 30.1222 189.455 31.3351C189.644 32.1749 190.586 33.0146 191.624 33.2012C192.661 33.3878 194.263 34.2275 195.206 35.0672C196.62 36.2802 196.809 38.5194 196.809 54.8473C196.809 74.5341 196.809 74.5341 191.906 75.7471C190.398 76.027 189.267 76.96 189.267 77.7064C189.267 78.9194 191.529 79.106 202.937 79.106C214.344 79.106 216.607 78.9194 216.607 77.7064C216.607 76.96 215.475 76.1203 214.061 75.7471C206.802 74.2542 207.179 75.3739 207.179 56.9933C207.273 38.8926 207.273 38.706 212.836 35.3471C217.172 32.7347 217.55 32.828 217.55 36.4668C217.55 40.2922 218.964 41.785 222.829 41.785C226.6 41.785 228.391 39.7323 228.391 35.0672C228.391 28.3495 221.98 25.8303 214.721 29.5624Z" fill="#C10010"/>
<path d="M4.29637 29.3756C1.46808 29.6555 0.713867 30.2154 0.713867 31.6149C0.713867 32.7345 1.3738 33.3876 2.41084 33.3876C3.3536 33.3876 5.05058 34.0408 6.18189 34.8805C8.1617 36.28 8.25597 36.8398 8.25597 50.6486C8.25597 67.8162 9.29301 73.4144 13.0641 77.1465C18.155 82.1848 27.2055 81.9982 34.2762 76.68C36.5389 74.9072 38.6129 73.5077 38.8958 73.5077C39.1786 73.5077 39.3671 74.7206 39.3671 76.3067V79.1058H46.3436C50.2089 79.1058 53.98 78.8259 54.8285 78.546C57.0911 77.7063 56.6197 75.467 53.98 74.8139C49.0776 73.601 48.7948 72.0148 48.7948 49.529V28.7225H44.3638C41.8183 28.7225 37.5759 29.0024 34.9362 29.2823C30.8823 29.8422 29.9395 30.2154 29.9395 31.6149C29.9395 33.0144 30.6937 33.3876 33.0506 33.3876C38.8958 33.3876 39.3671 34.7872 39.3671 52.7012V68.6559L36.5389 71.0818C30.3166 76.2134 23.3402 76.2134 19.852 70.9885C18.3435 68.8426 18.155 65.8569 17.8722 48.5959L17.495 28.7225L12.687 28.9091C9.95294 29.0024 6.18189 29.189 4.29637 29.3756Z" fill="#C10010"/>
<path d="M276.189 29.3758C272.135 29.9356 272.418 32.4548 276.566 33.5744C281.657 34.8806 281.751 35.3471 281.469 55.4072L281.186 73.9743L278.169 75.2806C276.472 76.027 275.058 77.2399 275.058 77.893C275.058 78.826 277.792 79.106 287.314 79.106C296.93 79.106 299.57 78.826 299.57 77.893C299.57 77.1466 297.873 75.9337 295.799 75.094L292.027 73.6944V51.2085V28.7227L285.711 28.9093C282.128 28.9093 277.886 29.1892 276.189 29.3758Z" fill="#C10010"/>
<path d="M341.051 30.4021C341.051 31.4284 342.371 32.7347 344.162 33.5744C347.65 35.2538 347.462 34.8806 360 65.0173L365.94 79.3859L362.734 85.3572C360.943 88.6228 358.398 92.3549 356.983 93.6611L354.344 96.1803L351.893 93.1946C349.253 90.1156 344.916 89.2759 343.125 91.4219C339.26 96.3669 342.748 101.499 350.007 101.499C353.684 101.499 354.815 101.032 358.398 97.7664C363.3 93.2879 366.6 86.8501 378.761 58.1129C387.246 38.0529 389.509 33.9476 393.091 32.828C394.034 32.5481 394.788 31.5217 394.788 30.4954C394.788 28.816 394.223 28.6294 385.643 28.9093C378.196 29.0959 376.404 29.4691 376.122 30.5887C375.933 31.5217 377.064 32.4548 379.233 33.2945C381.59 34.1342 382.532 34.9739 382.532 36.4668C382.532 38.3328 372.539 63.8977 371.219 65.3905C370.842 65.7637 367.637 59.1392 364.148 50.5554C358.021 35.7204 357.832 34.8806 359.435 33.761C360.472 33.0146 361.792 32.4548 362.451 32.4548C363.111 32.4548 363.677 31.615 363.677 30.5887C363.677 28.816 363.017 28.7227 352.364 28.7227C342.088 28.7227 341.051 28.9093 341.051 30.4021Z" fill="#C10010"/>
</svg>
