<svg width="84" height="84" viewBox="0 0 84 84" fill="none" xmlns="http://www.w3.org/2000/svg">
<path d="M82.1875 42C82.1875 64.3899 64.3267 82.5 42.3438 82.5C20.3608 82.5 2.5 64.3899 2.5 42C2.5 19.6101 20.3608 1.5 42.3438 1.5C64.3267 1.5 82.1875 19.6101 82.1875 42Z" stroke="#C10010" stroke-width="3"/>
<ellipse cx="42" cy="42" rx="31.5" ry="32" fill="#C10010"/>
<g clip-path="url(#clip0_1394_20854)">
<rect x="10" y="10" width="64" height="64" rx="32" fill="#C10010"/>
<g filter="url(#filter0_d_1394_20854)">
<path d="M12 46.821L12 12.0001L20.1596 17.7719L20.1596 46.3136H45.7769L45.7769 17.7719L54.4425 12.0001L54.4425 46.3136L45.7769 55.0029H20.1596L12 46.821Z" fill="white"/>
</g>
<g filter="url(#filter1_d_1394_20854)">
<path d="M37.3261 30.0596H72.0001L66.2527 38.1226H37.8314V63.4368H66.2527L72.0001 71.9998H37.8314L29.1787 63.4368V38.1226L37.3261 30.0596Z" fill="white"/>
</g>
</g>
<defs>
<filter id="filter0_d_1394_20854" x="8" y="8" width="50.4424" height="51.0029" filterUnits="userSpaceOnUse" color-interpolation-filters="sRGB">
<feFlood flood-opacity="0" result="BackgroundImageFix"/>
<feColorMatrix in="SourceAlpha" type="matrix" values="0 0 0 0 0 0 0 0 0 0 0 0 0 0 0 0 0 0 127 0" result="hardAlpha"/>
<feOffset/>
<feGaussianBlur stdDeviation="2"/>
<feComposite in2="hardAlpha" operator="out"/>
<feColorMatrix type="matrix" values="0 0 0 0 0.756863 0 0 0 0 0 0 0 0 0 0.0627451 0 0 0 1 0"/>
<feBlend mode="normal" in2="BackgroundImageFix" result="effect1_dropShadow_1394_20854"/>
<feBlend mode="normal" in="SourceGraphic" in2="effect1_dropShadow_1394_20854" result="shape"/>
</filter>
<filter id="filter1_d_1394_20854" x="28.6787" y="29.5596" width="43.8213" height="42.9404" filterUnits="userSpaceOnUse" color-interpolation-filters="sRGB">
<feFlood flood-opacity="0" result="BackgroundImageFix"/>
<feColorMatrix in="SourceAlpha" type="matrix" values="0 0 0 0 0 0 0 0 0 0 0 0 0 0 0 0 0 0 127 0" result="hardAlpha"/>
<feOffset/>
<feGaussianBlur stdDeviation="0.25"/>
<feComposite in2="hardAlpha" operator="out"/>
<feColorMatrix type="matrix" values="0 0 0 0 0.756863 0 0 0 0 0 0 0 0 0 0.0627451 0 0 0 1 0"/>
<feBlend mode="normal" in2="BackgroundImageFix" result="effect1_dropShadow_1394_20854"/>
<feBlend mode="normal" in="SourceGraphic" in2="effect1_dropShadow_1394_20854" result="shape"/>
</filter>
<clipPath id="clip0_1394_20854">
<rect x="10" y="10" width="64" height="64" rx="32" fill="white"/>
</clipPath>
</defs>
</svg>
