<svg width="84" height="84" viewBox="0 0 84 84" fill="none" xmlns="http://www.w3.org/2000/svg">
<g clip-path="url(#clip0_1394_20880)">
<circle cx="42" cy="42" r="40.5" stroke="white" stroke-width="3"/>
<circle cx="42" cy="42" r="35" fill="white"/>
<g clip-path="url(#clip1_1394_20880)">
<rect x="7" y="7" width="70" height="70" rx="35" fill="white"/>
<path d="M17.4131 58.3467L9 48.9577L9 30C9 30 10.6116 26.2215 12 24C14.5 20 17.4131 17 17.4131 17L17.4131 48.3755H43.8263L43.8263 15.6233L52.7611 9.00007L52.7611 48.3755L43.8263 58.3467H17.4131Z" fill="#C10010"/>
<g filter="url(#filter0_d_1394_20880)">
<path d="M35.2492 26.8726H71.0005L65.0745 36.125H35.7702V65.1736H65.0745L66.5 67C66.5 67 63.5 70 60 72C55.8723 74.3587 53.712 74.9998 53.712 74.9998H35.7702L26.8486 65.1736V36.125L35.2492 26.8726Z" fill="#C10010"/>
</g>
</g>
</g>
<defs>
<filter id="filter0_d_1394_20880" x="26.3486" y="26.3726" width="45.1514" height="49.1274" filterUnits="userSpaceOnUse" color-interpolation-filters="sRGB">
<feFlood flood-opacity="0" result="BackgroundImageFix"/>
<feColorMatrix in="SourceAlpha" type="matrix" values="0 0 0 0 0 0 0 0 0 0 0 0 0 0 0 0 0 0 127 0" result="hardAlpha"/>
<feOffset/>
<feGaussianBlur stdDeviation="0.25"/>
<feComposite in2="hardAlpha" operator="out"/>
<feColorMatrix type="matrix" values="0 0 0 0 0.158654 0 0 0 0 0.0503421 0 0 0 0 0.0593213 0 0 0 1 0"/>
<feBlend mode="normal" in2="BackgroundImageFix" result="effect1_dropShadow_1394_20880"/>
<feBlend mode="normal" in="SourceGraphic" in2="effect1_dropShadow_1394_20880" result="shape"/>
</filter>
<clipPath id="clip0_1394_20880">
<rect width="84" height="84" fill="white"/>
</clipPath>
<clipPath id="clip1_1394_20880">
<rect x="7" y="7" width="70" height="70" rx="35" fill="white"/>
</clipPath>
</defs>
</svg>
